<svg width="39" height="39" viewBox="0 0 39 39" fill="none" xmlns="http://www.w3.org/2000/svg">
<path opacity="0.3" d="M19.2305 0.5C29.5798 0.5 37.9617 8.80447 37.9619 19.0381C37.9619 29.2719 29.5799 37.5771 19.2305 37.5771C8.88114 37.577 0.5 29.2718 0.5 19.0381C0.500205 8.80457 8.88127 0.500161 19.2305 0.5Z" stroke="white"/>
<path d="M22.436 12.6924H20.513C19.6629 12.6924 18.8477 13.0267 18.2466 13.6218C17.6455 14.2168 17.3078 15.0239 17.3078 15.8655V17.7693H15.3848V20.3078H17.3078V25.3847H19.8719V20.3078H21.795L22.436 17.7693H19.8719V15.8655C19.8719 15.6971 19.9395 15.5357 20.0597 15.4167C20.1799 15.2977 20.343 15.2308 20.513 15.2308H22.436V12.6924Z" stroke="white" stroke-linecap="round" stroke-linejoin="round"/>
</svg>
