<svg width="39" height="39" viewBox="0 0 39 39" fill="none" xmlns="http://www.w3.org/2000/svg">
<path opacity="0.3" d="M19.2305 0.5C29.5798 0.5 37.9617 8.80447 37.9619 19.0381C37.9619 29.2719 29.5799 37.5771 19.2305 37.5771C8.88114 37.577 0.5 29.2718 0.5 19.0381C0.500205 8.80457 8.88127 0.500161 19.2305 0.5Z" stroke="white"/>
<path d="M22.4359 12.6924H16.0257C14.2555 12.6924 12.8206 14.113 12.8206 15.8655V22.2116C12.8206 23.9641 14.2555 25.3847 16.0257 25.3847H22.4359C24.2061 25.3847 25.6411 23.9641 25.6411 22.2116V15.8655C25.6411 14.113 24.2061 12.6924 22.4359 12.6924Z" stroke="white" stroke-linecap="round" stroke-linejoin="round"/>
<path d="M21.794 18.639C21.8731 19.1672 21.7819 19.7066 21.5335 20.1805C21.2851 20.6544 20.8921 21.0388 20.4104 21.2788C19.9286 21.5189 19.3827 21.6024 18.8502 21.5176C18.3178 21.4328 17.8259 21.1839 17.4445 20.8063C17.0631 20.4288 16.8117 19.9418 16.726 19.4146C16.6404 18.8875 16.7248 18.347 16.9672 17.8701C17.2097 17.3932 17.5979 17.0041 18.0766 16.7582C18.5554 16.5123 19.1002 16.422 19.6337 16.5004C20.1779 16.5802 20.6817 16.8313 21.0707 17.2164C21.4597 17.6015 21.7133 18.1003 21.794 18.639Z" stroke="white" stroke-linecap="round" stroke-linejoin="round"/>
<path d="M22.7559 15.5483H22.7625" stroke="white" stroke-linecap="round" stroke-linejoin="round"/>
</svg>
