<svg width="39" height="39" viewBox="0 0 39 39" fill="none" xmlns="http://www.w3.org/2000/svg">
<path opacity="0.3" d="M19.2305 0.5C29.5798 0.5 37.9617 8.80447 37.9619 19.0381C37.9619 29.2719 29.5799 37.5771 19.2305 37.5771C8.88114 37.577 0.5 29.2718 0.5 19.0381C0.500205 8.80457 8.88127 0.500161 19.2305 0.5Z" stroke="white"/>
<path d="M21.7955 16.5002C22.8156 16.5002 23.7938 16.9014 24.5151 17.6155C25.2364 18.3296 25.6416 19.2981 25.6416 20.3079V24.7502H23.0775V20.3079C23.0775 19.9713 22.9425 19.6485 22.702 19.4105C22.4616 19.1724 22.1355 19.0387 21.7955 19.0387C21.4555 19.0387 21.1294 19.1724 20.8889 19.4105C20.6485 19.6485 20.5134 19.9713 20.5134 20.3079V24.7502H17.9493V20.3079C17.9493 19.2981 18.3546 18.3296 19.0759 17.6155C19.7971 16.9014 20.7754 16.5002 21.7955 16.5002Z" stroke="white" stroke-linecap="round" stroke-linejoin="round"/>
<path d="M15.3855 17.1345H12.8214V24.7499H15.3855V17.1345Z" stroke="white" stroke-linecap="round" stroke-linejoin="round"/>
<path d="M14.1035 15.2308C14.8115 15.2308 15.3855 14.6626 15.3855 13.9616C15.3855 13.2606 14.8115 12.6924 14.1035 12.6924C13.3954 12.6924 12.8214 13.2606 12.8214 13.9616C12.8214 14.6626 13.3954 15.2308 14.1035 15.2308Z" stroke="white" stroke-linecap="round" stroke-linejoin="round"/>
</svg>
