<svg width="114" height="57" viewBox="0 0 114 57" fill="none" xmlns="http://www.w3.org/2000/svg">
<path d="M80 43H90" stroke="black" stroke-width="2" stroke-linecap="round" stroke-linejoin="round"/>
<path d="M85 9V19" stroke="black" stroke-width="2" stroke-linecap="round" stroke-linejoin="round"/>
<path d="M80 14H90" stroke="black" stroke-width="2" stroke-linecap="round" stroke-linejoin="round"/>
<line x1="56.5" y1="1" x2="56.5" y2="57" stroke="black"/>
<path d="M56 28.5H114" stroke="black"/>
<path d="M33.75 37H22.2773V35.043L27.9609 28.8438C28.7812 27.9297 29.3633 27.168 29.707 26.5586C30.0586 25.9414 30.2344 25.3242 30.2344 24.707C30.2344 23.8945 30.0039 23.2383 29.543 22.7383C29.0898 22.2383 28.4766 21.9883 27.7031 21.9883C26.7812 21.9883 26.0664 22.2695 25.5586 22.832C25.0508 23.3945 24.7969 24.1641 24.7969 25.1406H21.9492C21.9492 24.1016 22.1836 23.168 22.6523 22.3398C23.1289 21.5039 23.8047 20.8555 24.6797 20.3945C25.5625 19.9336 26.5781 19.7031 27.7266 19.7031C29.3828 19.7031 30.6875 20.1211 31.6406 20.957C32.6016 21.7852 33.082 22.9336 33.082 24.4023C33.082 25.2539 32.8398 26.1484 32.3555 27.0859C31.8789 28.0156 31.0938 29.0742 30 30.2617L25.8281 34.7266H33.75V37Z" fill="#0C0D0C"/>
<rect x="0.5" y="0.5" width="113" height="56" rx="1.5" stroke="black"/>
</svg>
