<svg width="114" height="57" viewBox="0 0 114 57" fill="none" xmlns="http://www.w3.org/2000/svg">
<path d="M80 43H90" stroke="black" stroke-width="2" stroke-linecap="round" stroke-linejoin="round"/>
<path d="M85 9V19" stroke="black" stroke-width="2" stroke-linecap="round" stroke-linejoin="round"/>
<path d="M80 14H90" stroke="black" stroke-width="2" stroke-linecap="round" stroke-linejoin="round"/>
<line x1="56.5" y1="1" x2="56.5" y2="57" stroke="black"/>
<path d="M25.5703 27.168H27.3047C28.1797 27.1602 28.8711 26.9336 29.3789 26.4883C29.8945 26.043 30.1523 25.3984 30.1523 24.5547C30.1523 23.7422 29.9375 23.1133 29.5078 22.668C29.0859 22.2148 28.4375 21.9883 27.5625 21.9883C26.7969 21.9883 26.168 22.2109 25.6758 22.6562C25.1836 23.0938 24.9375 23.668 24.9375 24.3789H22.0898C22.0898 23.5039 22.3203 22.707 22.7812 21.9883C23.25 21.2695 23.8984 20.7109 24.7266 20.3125C25.5625 19.9062 26.4961 19.7031 27.5273 19.7031C29.2305 19.7031 30.5664 20.1328 31.5352 20.9922C32.5117 21.8438 33 23.0312 33 24.5547C33 25.3203 32.7539 26.043 32.2617 26.7227C31.7773 27.3945 31.1484 27.9023 30.375 28.2461C31.3125 28.5664 32.0234 29.0703 32.5078 29.7578C33 30.4453 33.2461 31.2656 33.2461 32.2188C33.2461 33.75 32.7188 34.9688 31.6641 35.875C30.6172 36.7812 29.2383 37.2344 27.5273 37.2344C25.8867 37.2344 24.543 36.7969 23.4961 35.9219C22.4492 35.0469 21.9258 33.8828 21.9258 32.4297H24.7734C24.7734 33.1797 25.0234 33.7891 25.5234 34.2578C26.0312 34.7266 26.7109 34.9609 27.5625 34.9609C28.4453 34.9609 29.1406 34.7266 29.6484 34.2578C30.1562 33.7891 30.4102 33.1094 30.4102 32.2188C30.4102 31.3203 30.1445 30.6289 29.6133 30.1445C29.082 29.6602 28.293 29.418 27.2461 29.418H25.5703V27.168Z" fill="#0C0D0C"/>
<path d="M56 28.5H114" stroke="black"/>
<rect x="0.5" y="0.5" width="113" height="56" rx="1.5" stroke="black"/>
</svg>
